<svg fill="none" height="72" viewBox="0 0 223 72" width="223" xmlns="http://www.w3.org/2000/svg"><path d="m178.4 7.61732c-24.7-2.54088-49.4-4.57358-74.1-6.60629-12.0001-1.01634917-23.8001-1.778613-35.7001.33879-10.8 1.86331-21.4 5.08176-31.6 8.4696-13.9 4.65828-35.49997 11.51868-36.8999688 26.34048-1.7000012 17.278 19.3999688 25.6629 36.2999688 28.119 24 3.3879 48.3-.5081 72.5001 1.0164 12.3.7623 24.5 2.6256 36.7 4.2348 11.5 1.5245 23.1 3.2184 34.8 2.1174 16.6-1.5245 37.7-6.7757 41.3-22.7832 3.7-16.2617-16.5-24.0537-31.2-28.9661-23-7.6226-49.4-12.87375-74.2-10.75635-25.5001 2.20205-49.7001 11.01045-75.6001 10.75635-.8 0-2 2.1174-1.2 2.2021 20.1.847 39.2-4.4042 58.6-7.8767 20.9001-3.7266 40.9001-3.3031 61.7001.7623 10.3 2.0327 20.4 4.4889 30.2 7.7073 8.3 2.7103 17.4 5.844 23.9 11.1799 8.5 6.9451 8.2 16.3463.3 23.6302-6.6 6.0981-16.3 8.4696-25.5 10.0788-21 3.7266-42.3-1.1858-63.1-3.7266-10.6-1.1858-21.2-2.0327-31.8001-1.7786-10.4.1693-20.8.8469-31.3 1.0163-17.6.1694-41.5-.4235-54.09997-12.6197-7.1-6.9451-9.6-17.4474-1.5-24.7312 7.29997-6.6063 18.59997-10.3329 28.29997-13.6361 10.9-3.72661 22.3-7.19915 33.9-9.06246 11.5-1.86332 23.2-.93166 34.9001.08469 24.3 2.03271 48.6 4.15011 72.9 5.67464.6 0 2.4-1.10105 1.5-1.18575z" fill="#000" fill-opacity=".8"/></svg>